<svg
    width="20"
    height="20"
    viewBox="0 0 20 20"
    fill="none"
    xmlns="http://www.w3.org/2000/svg"
>
    <g clip-path="url(#clip0_10179_3660)">
        <path
            d="M3.90625 14.4531C3.90625 14.8428 4.22119 15.1562 4.60938 15.1562H16.7969C17.1865 15.1562 17.5 15.4697 17.5 15.8594C17.5 16.249 17.1865 16.5625 16.7969 16.5625H4.60938C3.44453 16.5625 2.5 15.6191 2.5 14.4531V4.14062C2.5 3.75244 2.81494 3.4375 3.20312 3.4375C3.59131 3.4375 3.90625 3.75244 3.90625 4.14062V14.4531ZM12.5781 6.25H15.8594C16.249 6.25 16.5625 6.56348 16.5625 6.95312V10.2344C16.5625 10.624 16.249 10.9375 15.8594 10.9375C15.4697 10.9375 15.1562 10.624 15.1562 10.2344V8.64941L11.8779 11.8779C11.6289 12.1768 11.1836 12.1768 10.9082 11.8779L8.56738 9.58691L6.72168 11.4092C6.47266 11.708 6.02734 11.708 5.75195 11.4092C5.47949 11.1602 5.47949 10.7148 5.75195 10.4395L8.0957 8.0957C8.37109 7.82324 8.81641 7.82324 9.06543 8.0957L11.4062 10.4131L14.1631 7.65625H12.5781C12.1885 7.65625 11.875 7.34277 11.875 6.95312C11.875 6.56348 12.1885 6.25 12.5781 6.25Z"
            fill="#666666" />
    </g>
    <defs>
        <clipPath id="clip0_10179_3660">
            <rect
                width="15"
                height="15"
                fill="white"
                transform="translate(2.5 2.5)"
            />
        </clipPath>
    </defs>
</svg>